<svg xmlns="http://www.w3.org/2000/svg" width="400.426" height="207.431" viewBox="0 0 400.426 207.431"><defs><style>.a{fill:#1d1d1b;}</style></defs><g transform="translate(0.13 0.01)"><g transform="translate(-0.13 -0.01)"><path d="M84.569,92.347s-1.431-.527-1.758-.6c-.929-.251-1.406-.778-1-1.783a6.453,6.453,0,0,0,0-1.456,11.425,11.425,0,0,1-1.03.653c-1.959.854-2.084.854-3.616-.653a2.009,2.009,0,0,1-.326-.7,9.217,9.217,0,0,1-.9.5c-2.134.929-2.285.879-3.34-1.055a3.064,3.064,0,0,1,0-.829,7.532,7.532,0,0,1-1.331,0c-.829-.151-1.632-.176-2.034-1.08-.2-.477-.653-.276-1-.352-1.18-.276-2.386-.527-2.511-2.109a.829.829,0,0,0-.3-.628c-1.507-1.205-2.511-3.089-4.445-3.716-.5-.176-1.18-.326-1.205-.879,0-1.406-1.055-1.632-2.059-1.959a1.682,1.682,0,0,1-1.205-1.306,2.511,2.511,0,0,0-1.331-1.883.251.251,0,0,1-.126,0c-.9-1.858-2.863-2.938-3.666-4.9a6.177,6.177,0,0,1-.151-.854,9.415,9.415,0,0,0-.954,0c-.352,0-.778-.176-.854-.452-.452-1.607-1.657-2.863-2.134-4.369-.352-1.13-1.23-1.482-2.134-2.134a1.532,1.532,0,0,1-.377-1.205c0-1.456-1.03-2.109-1.733-3.089A7.081,7.081,0,0,1,41.3,51.994a11.577,11.577,0,0,1,.251-1.205A19.133,19.133,0,0,1,39.495,48.6c-.778-1.1-1.08-2.511-2.31-3.39v-.4a11.953,11.953,0,0,0-2.31-5.625c-.326-.527-.8-.854-.552-1.733s-.7-.929-1.381-.929a19.185,19.185,0,0,1-4.8-.251,8.086,8.086,0,0,1-4.57-1.682,14.338,14.338,0,0,0,5.3-1.482c-4.168-.653-8.287-1.507-12.4-2.511,5.022,0,9.793,0,14.715.176-6.1-2.787-12.832-2.637-19.536-4.269a9.417,9.417,0,0,1,4.721,0c5.4.527,10.823,1.1,16.247,1.682H34.95l-2.109-1.1A35.155,35.155,0,0,0,25.081,24.7c-3.139-.628-6.052-1.733-9.065-2.637-.6-.176-1.331,0-1.833-.728,9.266,1.1,27.848,5.273,27.848,5.273l-1.306-.5c-3.516-1.682-7.106-3.214-10.672-4.771a41.809,41.809,0,0,1-7.91-4.319,20.089,20.089,0,0,1-4.57-3.666c9.266,3.716,17.929,8.864,27.622,11.375a104.887,104.887,0,0,1-11.124-7.131,38.143,38.143,0,0,1-9.818-8.663,30.987,30.987,0,0,1,6.4,3.641A132.535,132.535,0,0,0,51.95,24.6a14.815,14.815,0,0,0,2.511.6s-1.281-1.356-1.934-1.908A64.786,64.786,0,0,1,41.8,14.454,29.48,29.48,0,0,1,34.272,1.9a2.511,2.511,0,0,1,0-.4c0-.452-.4-1.055.151-1.281s.7.326.954.7c1.205,1.632,2.511,3.239,3.666,4.872A77.844,77.844,0,0,0,49.589,17.843,62.4,62.4,0,0,0,56.7,22.615s-1.406-1.908-2.134-2.737A43.442,43.442,0,0,1,46.049,5.162,18.431,18.431,0,0,1,45.4,1.27c0-.452,0-1.1.5-1.256s.879.427,1.055.829c.8,1.858,1.833,3.641,2.787,5.449a95.974,95.974,0,0,0,10.5,17.151l.653.7c.377,0,.226-.4.352-.578s.377-1.08,1-1.08.628.653.778,1.055a15.418,15.418,0,0,0,4.394,6.227c.578.5.979,1.18,1.908.8.452-.176.477.352.7.552a86.934,86.934,0,0,0,10.044,6.805,24.96,24.96,0,0,1,7.885,5.826A125.555,125.555,0,0,0,99.685,57.77c2.787,2.938,5.474,5.976,8.161,9.04.6.678,1,.628,1.758.151,4.168-2.511,7.533-6.052,11.8-8.588,1.306-.778,2.511-1.632,3.892-2.386a11.25,11.25,0,0,0,3.465-2.737,6.805,6.805,0,0,1,4.746-2.787.427.427,0,0,0-.4-.427.971.971,0,0,1-1.08-.778c-.1-.578.326-.979.728-1.306a8.538,8.538,0,0,1,5.148-1.456l3.29-.226v-.352c-2.084-2.084-2.134-2.511-.829-5.173.452-.879.954-1,1.833-.578a24.433,24.433,0,0,1,4.545,2.712,2.511,2.511,0,0,0,1.733.653,8.864,8.864,0,0,1-1.657-3.616,8.487,8.487,0,0,1,2.511-6.7c.678-.427,1.18,0,1.582.452a11.953,11.953,0,0,1,1.833,3.013,8.69,8.69,0,0,0,.678,1.256,7.328,7.328,0,0,0,.929,1.306s-.226-1.356-.276-1.557l-.477-1.356a10.27,10.27,0,0,1,1.858-10.044c.929-1.23,1.708-1.08,2.21.4a58.688,58.688,0,0,1,1.833,6.855,19.086,19.086,0,0,0,.929,2.511,12.957,12.957,0,0,0,.452-2.511,52.309,52.309,0,0,1-.377-5.976,18.959,18.959,0,0,1,2.511-7.533,3.867,3.867,0,0,1,.728-.854c.477-.5.8-.377,1.1.176a10.7,10.7,0,0,1,.829,3.038c.326,1.632.552,3.29.778,5.022a13.214,13.214,0,0,0,.628,2.21,54.284,54.284,0,0,0,.377-5.926,20.867,20.867,0,0,1,2.009-10.044c.929-2.034,1.256-2.009,2.511-.151l.4.552,1.582-1.783a1.03,1.03,0,0,1,1.155-.4c.477,0,.628.527.7.979.527,3.49,1.23,6.956,1.532,10.471a50.048,50.048,0,0,1-.829,9.04,32.644,32.644,0,0,1-1.632,6.2,25.236,25.236,0,0,1-2.235,5.926A11.928,11.928,0,0,1,170.423,47a8.186,8.186,0,0,1-2.511,2.084.829.829,0,0,0-.452.7,8.889,8.889,0,0,1-3.465,5.022,29.229,29.229,0,0,0-4.821,4.495,4.821,4.821,0,0,1-2.511,1.582,35.156,35.156,0,0,0-9.191,5.474,93.715,93.715,0,0,0-12.053,11.149c-1.281,1.306-1.23,1.482,0,2.938a30.386,30.386,0,0,0,2.511,2.762,10.5,10.5,0,0,0,6.127,2.637,15.443,15.443,0,0,0,9.417-1.557,15.77,15.77,0,0,0,5.851-6.428,49.529,49.529,0,0,1,2.511-4.319,13.259,13.259,0,0,1,8.337-5.625,11.174,11.174,0,0,1,10.672,4.62,2.687,2.687,0,0,0,1.1,1.08,145.344,145.344,0,0,0,16.824,6.78,96.047,96.047,0,0,1,13.284,5.6,7.258,7.258,0,0,1,1.507.829c.452.578.5.929-.326,1.13a5.022,5.022,0,0,1-2.511-.176l-13.158-3.29c-3.641-.9-7.357-1.431-10.948-2.511a81.987,81.987,0,0,0-8.086-1.883,15.067,15.067,0,0,0-6.453.829,6.83,6.83,0,0,1-.954.276,16.9,16.9,0,0,0-9.693,4.62,49.041,49.041,0,0,1-8.613,5.926A15.066,15.066,0,0,1,142.5,93.2c-2.31-.477-4.6-.929-6.855-1.582a6.328,6.328,0,0,0-5.75,1.632c-2.913,2.285-5.75,4.671-8.789,6.78a8.262,8.262,0,0,1-5.7,1.507,15.9,15.9,0,0,0-7.533,1.406,20.641,20.641,0,0,1-8.161,1.883,13.51,13.51,0,0,1-3.013-.7,4.319,4.319,0,0,0-2.812,0c-5.022,1.306-9.668,3.139-14.489,4.7a82.664,82.664,0,0,0-10.044,3.641,9.016,9.016,0,0,0-1.532,1.205A4.5,4.5,0,0,1,63.827,115c-.778-.2-1.582.452-2.335.778-4.344,1.833-8.412,4.219-12.807,5.926-5.374,2.134-10.672,4.394-15.945,6.755-1.758.778-3.49,1.682-5.173,2.511a21.294,21.294,0,0,1-7.659,2.687c-3.716.352-7.383.979-11.074,1.482-.5,0-1.155.276-1.256-.427s.4-.854.979-1.03,1.632-.728,2.511-.954a20.24,20.24,0,0,0,1.883-.778s-2.511-.326-2.511-1.08c0-1.13,1.155-.954,1.934-1,1.758,0,3.315-1.055,5.022-1.18a2.034,2.034,0,0,1,0-.954s-1.256.276-1.657.326c-5.022.578-10.044.954-14.891,1.758-.352,0-.829.3-.954-.226s.251-.7.653-.9a15.065,15.065,0,0,1,2.511-.6,3.089,3.089,0,0,1-.552-.879c0-.3.527-.628.979-.728a70.963,70.963,0,0,1,7.157-2.134c.578,0,.7-.4.6-.929a1.144,1.144,0,0,1,.979-1.23,9.065,9.065,0,0,1,5.876,0,5.65,5.65,0,0,0,3.942-.377c5.3-1.833,10.6-3.716,15.82-5.775,4.219-1.632,8.412-3.39,12.555-5.374,2.511-1.331,5.022-2.662,7.533-4.219.678-.4.778-.653.276-1.256s-.427-1.1-.929-1.557-.226-1.23.276-1.708A2.527,2.527,0,0,0,58.4,99.1c-.527-1.331.151-1.984,1.557-2.511a49.543,49.543,0,0,1,11.677-2.084,61.345,61.345,0,0,0,11.425-1.582l1.582-.452Zm-65.288,34.2h1.23a21.671,21.671,0,0,1,6.855.3,2.837,2.837,0,0,0,1.758-.176c4.043-1.306,7.96-2.938,11.877-4.545a189.861,189.861,0,0,0,18.281-8.663,24,24,0,0,0,3.189-2.963,11.852,11.852,0,0,1,2.511-1.808,5.323,5.323,0,0,0-2.009.3c-3.064,1.406-5.8,3.716-9.467,3.566a.3.3,0,0,0-.251.151c-2.988,1.205-5.976,2.511-8.99,3.616s-6.7,2.511-10.044,3.867c-1.833.678-3.566,1.632-5.4,2.235-3.013,1-5.9,2.31-8.789,3.591a4.018,4.018,0,0,0-.829.653Z" transform="translate(0.13 0.01)"/><path class="a" d="M63.871,63.365H51.541V56.108c0-1.03-.6-1.557-1.783-1.557H47.247c-1.18,0-1.758.527-1.758,1.557v25.94c0,1.03.578,1.557,1.758,1.557h2.511c1.18,0,1.783-.527,1.783-1.557V75.066H63.871V83c0,5.826-3.44,8.739-10.371,8.739H43.456Q33.11,91.74,33.11,83V55.179q0-8.739,10.346-8.739H53.5c6.931,0,10.371,2.913,10.371,8.739Z" transform="translate(50.358 70.199)"/><path class="a" d="M71.949,91.67l-1.406-6.78H59.67l-1.482,6.78H46.06l11.651-45.2H72.778L84.4,91.67ZM61.579,76.151h7.056l-3.465-16.3Z" transform="translate(69.927 70.245)"/><path class="a" d="M73.454,91.67H62.43V46.47H75.915l7.332,24.182L90.579,46.47h13.459v45.2H93.115v-28.8l-5.65,19.009H78.928L73.378,63.043Z" transform="translate(94.663 70.245)"/><path class="a" d="M81.25,46.44h20.942q10.371,0,10.371,8.739V68.161q0,8.739-10.371,8.739H93.579V91.715H81.25Zm18.959,20.089V56.811c0-1.03-.578-1.557-1.758-1.557H93.579V68.086h4.872C99.631,68.086,100.209,67.583,100.209,66.529Z" transform="translate(123.102 70.199)"/><path class="a" d="M95.4,46.44h12.355v45.2H95.4Z" transform="translate(144.484 70.199)"/><path class="a" d="M123.211,46.44h11.275v45.2H123.914L113.87,67.86V91.64h-11.3V46.44h10.6l10.044,24.182Z" transform="translate(155.318 70.199)"/><path class="a" d="M148.156,61.959H135.826V56.108c0-1.03-.6-1.557-1.758-1.557h-2.511c-1.18,0-1.783.527-1.783,1.557v25.94c0,1.03.6,1.557,1.783,1.557h2.511c1.155,0,1.758-.527,1.758-1.557V74.514h-3.541V66.679h15.87V83c0,5.826-3.44,8.739-10.371,8.739H127.741c-6.931,0-10.371-2.913-10.371-8.739V55.179c0-5.826,3.44-8.739,10.371-8.739h10.044c6.931,0,10.371,2.913,10.371,8.739Z" transform="translate(177.682 70.199)"/><path class="a" d="M33,69.53H43.044q4.671,0,4.671,4.219v8.613q0,4.219-4.671,4.219H38.022V96.625H33Zm9.668,12.129V74.427a1.281,1.281,0,0,0-.251-.9,1.507,1.507,0,0,0-.954-.226H37.872v9.517h3.541a1.506,1.506,0,0,0,.954-.226,1.381,1.381,0,0,0,.251-.929Z" transform="translate(50.192 105.09)"/><path class="a" d="M44.45,71.91h4.821c3.038,0,4.545,1.406,4.545,4.244V88.709c0,2.812-1.507,4.219-4.545,4.219H44.45c-3.064,0-4.57-1.406-4.57-4.219V76.154C39.88,73.316,41.387,71.91,44.45,71.91Zm4.62,16.2v-11.4a1.381,1.381,0,0,0-.251-.929,1.582,1.582,0,0,0-1-.226H45.856a1.557,1.557,0,0,0-.979.226,1.256,1.256,0,0,0-.251.929v11.4a1.205,1.205,0,0,0,.251.929,1.557,1.557,0,0,0,.979.226h1.858a1.582,1.582,0,0,0,1-.226,1.331,1.331,0,0,0,.352-.929Z" transform="translate(60.588 108.687)"/><path class="a" d="M55.346,68.88h4.872v28.6h-4.8V95.4a2.712,2.712,0,0,1-3.038,2.084H51.077a3.792,3.792,0,0,1-4.369-4.219V80.707a3.817,3.817,0,0,1,4.369-4.244h1.431a2.787,2.787,0,0,1,2.963,1.808ZM52.835,93.715h1.281c.879,0,1.331-.452,1.331-1.406V81.737a1.682,1.682,0,0,0-.3-1.13,1.331,1.331,0,0,0-1.03-.326H52.835a1.255,1.255,0,0,0-.929.251,1.18,1.18,0,0,0-.276.9v11.2a1.205,1.205,0,0,0,.276.929,1.381,1.381,0,0,0,.829.151Z" transform="translate(70.861 104.108)"/><path class="a" d="M70.628,78.469H65.606V74.276a1.331,1.331,0,0,0-.251-.929,1.507,1.507,0,0,0-.954-.226H62.392a1.431,1.431,0,0,0-.929.226,1.205,1.205,0,0,0-.251.929V91.854a1.281,1.281,0,0,0,.251.929,1.431,1.431,0,0,0,.929.226H64.4a1.507,1.507,0,0,0,.954-.226,1.406,1.406,0,0,0,.251-.929V87.685h5.022v4.62c0,2.838-1.532,4.244-4.646,4.244H60.961c-3.114,0-4.671-1.406-4.671-4.244V73.749q0-4.219,4.671-4.219h5.022c3.114,0,4.646,1.406,4.646,4.219Z" transform="translate(85.385 105.09)"/><path class="a" d="M75.325,89.262V92.9H62.77V89.262l7.357-13.711H63.2V71.91H75.15v3.641L67.616,89.262Z" transform="translate(95.177 108.687)"/><path class="a" d="M77.343,71.952h4.821V92.945h-4.9V91.162A2.812,2.812,0,0,1,74.3,92.945H72.974a3.792,3.792,0,0,1-4.344-4.219V76.171a3.792,3.792,0,0,1,4.344-4.244H74.3a2.712,2.712,0,0,1,3.038,2.059ZM74.631,89.179h1.281c.879,0,1.331-.452,1.331-1.406V77.2c0-.929-.452-1.406-1.331-1.406H74.631a1.507,1.507,0,0,0-.954.226,1.281,1.281,0,0,0-.251.929V88.1a1.205,1.205,0,0,0,.251.929,1.507,1.507,0,0,0,.954.151Z" transform="translate(103.982 108.644)"/><path class="a" d="M83.978,71.88h.778v4.194H82.948c-1.783,0-2.687,1-2.687,3.064V92.948H75.44V71.956h4.771v2.737a3.792,3.792,0,0,1,1.331-2.009A3.867,3.867,0,0,1,83.978,71.88Z" transform="translate(114.322 108.641)"/><path class="a" d="M87.734,71.919h1.281c2.938,0,4.42,1.406,4.42,4.244V92.911h-4.9V76.84a1.281,1.281,0,0,0-.251-.929,1.431,1.431,0,0,0-.929-.226H86.077c-.879,0-1.331.477-1.331,1.406v15.82H80V71.919h4.8v1.934a2.787,2.787,0,0,1,2.938-1.934Z" transform="translate(121.213 108.678)"/><path class="a" d="M91.313,98.683H88.375V94.967H90.56a2.084,2.084,0,0,0,2.31-1.507l.527-1.281H90.886L86.09,71.94h5.022L94.1,88.111,96.888,71.94h4.872l-4.7,22.273A5.424,5.424,0,0,1,91.313,98.683Z" transform="translate(130.415 108.732)"/><path class="a" d="M109.653,71.94h1.306a3.792,3.792,0,0,1,4.369,4.244V92.933h-4.821V76.862a1.281,1.281,0,0,0-.276-.929,1.381,1.381,0,0,0-.929-.226h-1.281c-.879,0-1.331.477-1.331,1.406v15.82h-4.872V76.862a1.281,1.281,0,0,0-.251-.929,1.507,1.507,0,0,0-.954-.226H99.332c-.879,0-1.331.477-1.331,1.406v15.82H93.18V71.94h4.8v1.934a2.787,2.787,0,0,1,3.038-1.934H102.3a3.817,3.817,0,0,1,4.018,2.134A3.013,3.013,0,0,1,109.653,71.94Z" transform="translate(141.129 108.657)"/><path class="a" d="M106.21,69.53h10.245q4.671,0,4.671,4.219v5.826c0,1.783-.6,2.888-1.783,3.29a2.863,2.863,0,0,1,1.783,3.089V92.28q0,4.219-4.671,4.219H106.21ZM116.254,79.9V74.276a1.205,1.205,0,0,0-.251-.929,1.557,1.557,0,0,0-.979-.226h-3.892v7.935h3.892A1.557,1.557,0,0,0,116,80.83a1.2,1.2,0,0,0,.251-.929Zm0,11.852V85.777a1.18,1.18,0,0,0-.251-.9,1.557,1.557,0,0,0-.979-.226h-3.892v8.236h3.892a1.557,1.557,0,0,0,.979-.226A1.256,1.256,0,0,0,116.254,91.753Z" transform="translate(160.819 105.09)"/><path class="a" d="M118.1,71.91h4.846c3.013,0,4.52,1.406,4.52,4.244V88.709q0,4.219-4.52,4.219H118.1c-3.038,0-4.57-1.406-4.57-4.219V76.154C113.53,73.316,115.062,71.91,118.1,71.91Zm4.62,16.2v-11.4a1.256,1.256,0,0,0-.251-.929,1.557,1.557,0,0,0-.979-.226h-1.984a1.557,1.557,0,0,0-.979.226,1.256,1.256,0,0,0-.251.929v11.4a1.205,1.205,0,0,0,.251.929,1.557,1.557,0,0,0,.979.226h1.984a1.557,1.557,0,0,0,.979-.226,1.205,1.205,0,0,0,.251-.929Z" transform="translate(171.88 108.687)"/><path class="a" d="M133.85,78.981H129.1V76.847a1.281,1.281,0,0,0-.251-.929,1.431,1.431,0,0,0-.929-.226h-1.557a1.431,1.431,0,0,0-.929.226,1.28,1.28,0,0,0-.251.929V88a1.205,1.205,0,0,0,.251.929,1.431,1.431,0,0,0,.929.226h1.557a1.431,1.431,0,0,0,.929-.226A1.205,1.205,0,0,0,129.1,88V85.811h4.746V88.7c0,2.812-1.557,4.219-4.646,4.219h-4.194q-4.671,0-4.671-4.219V76.144c0-2.838,1.557-4.244,4.671-4.244H129.2c3.089,0,4.646,1.406,4.646,4.244Z" transform="translate(182.17 108.672)"/><path class="a" d="M126.88,73.1V68.86H131.9V73.1ZM131.9,97.512h-4.846V76.519H131.9Z" transform="translate(192.053 104.078)"/><path class="a" d="M138.959,71.955h4.771V92.948h-4.871V91.165a2.762,2.762,0,0,1-2.938,1.783h-1.331a3.792,3.792,0,0,1-4.369-4.219V76.174a3.792,3.792,0,0,1,4.369-4.244h1.331a2.712,2.712,0,0,1,3.038,2.059Zm-2.712,17.226h1.281c.9,0,1.331-.452,1.331-1.406V77.2c0-.929-.427-1.406-1.331-1.406h-1.281a1.431,1.431,0,0,0-.929.226,1.281,1.281,0,0,0-.251.929V88.1a1.205,1.205,0,0,0,.251.929,1.431,1.431,0,0,0,.929.151Z" transform="translate(197.049 108.642)"/><path class="a" d="M144.91,71.932h1.281c2.938,0,4.394,1.406,4.394,4.244V92.925h-4.872V76.854a1.281,1.281,0,0,0-.251-.929,1.481,1.481,0,0,0-.954-.226h-1.281c-.879,0-1.331.477-1.331,1.406v15.82H137V71.932h4.8v1.934A2.787,2.787,0,0,1,144.91,71.932Z" transform="translate(207.345 108.665)"/><path class="a" d="M148.411,71.91h4.52c3.089,0,4.62,1.406,4.62,4.244v7.659h-9.115v4.294a1.206,1.206,0,0,0,.251.929,1.432,1.432,0,0,0,.954.226H151.6a1.507,1.507,0,0,0,.954-.226,1.205,1.205,0,0,0,.251-.929V86.525h4.7v2.16c0,2.812-1.557,4.219-4.646,4.219h-4.445q-4.671,0-4.671-4.219V76.129Q143.74,71.91,148.411,71.91Zm0,8.764h4.445V76.656a1.281,1.281,0,0,0-.251-.929,1.431,1.431,0,0,0-.929-.226h-2.059a1.381,1.381,0,0,0-.929.226,1.281,1.281,0,0,0-.276.929Z" transform="translate(217.53 108.687)"/><path class="a" d="M166.973,71.94h1.306a3.792,3.792,0,0,1,4.369,4.244V92.933h-4.821V76.862a1.406,1.406,0,0,0-.251-.929,1.507,1.507,0,0,0-.954-.226H165.34c-.879,0-1.331.477-1.331,1.406v15.82h-4.872V76.862a1.281,1.281,0,0,0-.251-.929,1.481,1.481,0,0,0-.954-.226h-1.155c-.879,0-1.331.477-1.331,1.406v15.82H150.5V71.94h4.8v1.934a2.787,2.787,0,0,1,3.038-1.934h1.281a3.817,3.817,0,0,1,4.018,2.134A3.013,3.013,0,0,1,166.973,71.94Z" transform="translate(227.745 108.657)"/></g></g></svg>