<svg xmlns="http://www.w3.org/2000/svg" width="512.734" height="487.309" viewBox="0 0 512.734 487.309"><defs><style>.a{opacity:0.01;}</style></defs><g class="a" transform="translate(0.051 0.006)"><g transform="translate(-0.051 -0.006)"><path d="M6.631,237.767.859,231.272a3.608,3.608,0,0,1,.3-5.094L255.519.908a3.608,3.608,0,0,1,4.8,0L511.486,226.214a3.608,3.608,0,0,1,.274,5.094l-5.773,6.444a3.608,3.608,0,0,1-5.094.274L260.253,22.187a3.608,3.608,0,0,0-4.8,0L11.726,238.077a3.608,3.608,0,0,1-5.094-.31Z" transform="translate(0.051 0.006)"/><circle cx="31.158" cy="31.158" r="31.158" transform="translate(40.763 209.797)"/><circle cx="31.158" cy="31.158" r="31.158" transform="translate(40.763 281.349)"/><circle cx="31.158" cy="31.158" r="31.158" transform="translate(40.763 352.893)"/><circle cx="31.158" cy="31.158" r="31.158" transform="translate(40.763 424.438)"/><circle cx="31.158" cy="31.158" r="31.158" transform="translate(410.104 209.797)"/><circle cx="31.158" cy="31.158" r="31.158" transform="translate(410.104 281.349)"/><circle cx="31.158" cy="31.158" r="31.158" transform="translate(410.104 352.893)"/><circle cx="31.158" cy="31.158" r="31.158" transform="translate(410.104 424.438)"/><path d="M152.069,321.909a40.575,40.575,0,0,1-.382,5.571,3.608,3.608,0,0,0,3.608,4.041H437.13a3.608,3.608,0,0,0,3.608-4.041,40.5,40.5,0,0,1,8.414-30.768,3.608,3.608,0,0,0-2.8-5.866L146,290.78a3.608,3.608,0,0,0-2.8,5.874A40.322,40.322,0,0,1,152.069,321.909Z" transform="translate(-39.61 -80.955)"/><path d="M268.266,382.69v11.625a3.608,3.608,0,0,0,3.608,3.608h28.178a3.608,3.608,0,0,0,3.608-3.608V382.69a3.608,3.608,0,0,1,3.608-3.608h92.947a3.608,3.608,0,0,1,3.608,3.608v11.625a3.608,3.608,0,0,0,3.608,3.608h30.025a3.608,3.608,0,0,0,3.269-2.1,40.85,40.85,0,0,1,13.053-15.875,3.608,3.608,0,0,0,.079-5.838,40.912,40.912,0,0,1-11.134-12.13,3.608,3.608,0,0,0-3.088-1.761H146.1a3.608,3.608,0,0,0-3.1,1.761,40.985,40.985,0,0,1-11.127,12.13,3.608,3.608,0,0,0,.072,5.838,40.726,40.726,0,0,1,13.053,15.875,3.608,3.608,0,0,0,3.276,2.1h23.812a3.608,3.608,0,0,0,3.608-3.608V382.69a3.608,3.608,0,0,1,3.608-3.608h85.349A3.608,3.608,0,0,1,268.266,382.69Z" transform="translate(-36.277 -100.288)"/><rect width="35.394" height="36.079" rx="5" transform="translate(231.989 307.015)"/><path d="M155.8,425.47a3.608,3.608,0,0,0-3.608,3.8c0,.563.036,1.126.036,1.7a40.272,40.272,0,0,1-8.471,24.757,3.608,3.608,0,0,0,2.836,5.83h29.022a3.608,3.608,0,0,0,3.608-3.608V429.078a3.608,3.608,0,0,0-3.608-3.608Z" transform="translate(-39.774 -118.455)"/><path d="M548.122,461.549a3.608,3.608,0,0,0,2.836-5.83,40.314,40.314,0,0,1-8.471-24.757c0-.57,0-1.133.036-1.7a3.608,3.608,0,0,0-3.608-3.8H512.938a3.608,3.608,0,0,0-3.608,3.608v28.863a3.608,3.608,0,0,0,3.608,3.608Z" transform="translate(-141.77 -118.455)"/><path d="M271.463,492.078V503.71a3.608,3.608,0,0,1-3.608,3.608h-85.32a3.608,3.608,0,0,1-3.608-3.608V492.078a3.608,3.608,0,0,0-3.608-3.608h-29.8a3.608,3.608,0,0,0-2.778,5.91,40.307,40.307,0,0,1,9.193,25.667c0,.787,0,1.566-.065,2.345a3.608,3.608,0,0,0,3.608,3.774H303.248a3.608,3.608,0,0,0,3.608-3.608v-30.48a3.608,3.608,0,0,0-3.608-3.608H275.071A3.608,3.608,0,0,0,271.463,492.078Z" transform="translate(-39.473 -135.995)"/><path d="M538.945,526.165a3.608,3.608,0,0,0,3.608-3.774c-.051-.779-.072-1.559-.072-2.345a40.344,40.344,0,0,1,9.179-25.667,3.608,3.608,0,0,0-2.771-5.91H512.918a3.608,3.608,0,0,0-3.608,3.608v30.48a3.608,3.608,0,0,0,3.608,3.608Z" transform="translate(-141.764 -135.995)"/><path d="M144.731,555.766a40.82,40.82,0,0,1-12.772,15.262,3.608,3.608,0,0,0,0,5.9,40.784,40.784,0,0,1,10.513,11.192,3.608,3.608,0,0,0,3.038,1.667H300.051a3.608,3.608,0,0,0,3.608-3.608V557.318a3.608,3.608,0,0,0-3.608-3.608H147.978a3.608,3.608,0,0,0-3.247,2.056Z" transform="translate(-36.276 -154.159)"/><path d="M548.79,588.122A40.783,40.783,0,0,1,559.3,576.931a3.608,3.608,0,0,0,0-5.9,40.8,40.8,0,0,1-12.765-15.261,3.608,3.608,0,0,0-3.254-2.056H512.978a3.608,3.608,0,0,0-3.608,3.608v28.863a3.608,3.608,0,0,0,3.608,3.608h32.8A3.608,3.608,0,0,0,548.79,588.122Z" transform="translate(-141.781 -154.159)"/><path d="M549.011,659.009a3.608,3.608,0,0,0,2.771-5.917A40.372,40.372,0,0,1,543,620.859a3.608,3.608,0,0,0-3.565-4.149H512.918a3.608,3.608,0,0,0-3.608,3.608V655.4a3.608,3.608,0,0,0,3.608,3.608Z" transform="translate(-141.764 -171.7)"/><path d="M154.911,616.71a3.608,3.608,0,0,0-3.565,4.149,40.473,40.473,0,0,1-8.789,32.233,3.608,3.608,0,0,0,2.771,5.917H303.2A3.608,3.608,0,0,0,306.8,655.4V620.318a3.608,3.608,0,0,0-3.608-3.608Z" transform="translate(-39.421 -171.7)"/><path d="M284.247,47.792,104.682,206.85a3.608,3.608,0,0,0,2.4,6.307l356.678-.173a3.608,3.608,0,0,0,2.41-6.3L289.039,47.806a3.608,3.608,0,0,0-4.791-.014Z" transform="translate(-28.77 -13.051)"/><path d="M526.415,15H477.348a3.608,3.608,0,0,0-3.608,3.608V64a3.608,3.608,0,0,0,1.2,2.684L524.005,110.7A3.608,3.608,0,0,0,530.023,108v-89.4A3.608,3.608,0,0,0,526.415,15Z" transform="translate(-131.861 -4.172)"/></g></g></svg>